<mxfile host="app.diagrams.net" modified="2023-05-22T17:14:44.602Z" agent="Mozilla/5.0 (Windows NT 10.0; Win64; x64) AppleWebKit/537.36 (KHTML, like Gecko) Chrome/113.0.0.0 Safari/537.36" etag="3qITs5IJeJOtQStxfd0W" version="21.3.2" type="github">
  <diagram name="PÃ¡gina-1" id="kllAqAFV5FVC7QLykRas">
    <mxGraphModel dx="880" dy="396" grid="1" gridSize="10" guides="1" tooltips="1" connect="1" arrows="1" fold="1" page="1" pageScale="1" pageWidth="827" pageHeight="1169" math="0" shadow="0">
      <root>
        <mxCell id="0" />
        <mxCell id="1" parent="0" />
        <mxCell id="p_gB1W_YKTRuexhc4v0a-1" value="DEPARTAMENTOS" style="rounded=1;arcSize=10;whiteSpace=wrap;html=1;align=center;" vertex="1" parent="1">
          <mxGeometry x="100" y="60" width="130" height="40" as="geometry" />
        </mxCell>
        <mxCell id="p_gB1W_YKTRuexhc4v0a-2" value="CURSOS" style="rounded=1;arcSize=10;whiteSpace=wrap;html=1;align=center;" vertex="1" parent="1">
          <mxGeometry x="480" y="60" width="100" height="40" as="geometry" />
        </mxCell>
        <mxCell id="p_gB1W_YKTRuexhc4v0a-3" value="ESTUDIANTES" style="rounded=1;arcSize=10;whiteSpace=wrap;html=1;align=center;" vertex="1" parent="1">
          <mxGeometry x="480" y="300" width="100" height="40" as="geometry" />
        </mxCell>
        <mxCell id="p_gB1W_YKTRuexhc4v0a-4" value="tienen" style="shape=rhombus;perimeter=rhombusPerimeter;whiteSpace=wrap;html=1;align=center;" vertex="1" parent="1">
          <mxGeometry x="293.5" y="50" width="120" height="60" as="geometry" />
        </mxCell>
        <mxCell id="p_gB1W_YKTRuexhc4v0a-5" value="se matriculan" style="shape=rhombus;perimeter=rhombusPerimeter;whiteSpace=wrap;html=1;align=center;" vertex="1" parent="1">
          <mxGeometry x="470" y="170" width="120" height="60" as="geometry" />
        </mxCell>
        <mxCell id="p_gB1W_YKTRuexhc4v0a-17" value="" style="endArrow=none;html=1;rounded=0;exitX=1;exitY=0.5;exitDx=0;exitDy=0;entryX=0;entryY=0.5;entryDx=0;entryDy=0;" edge="1" parent="1" source="p_gB1W_YKTRuexhc4v0a-1" target="p_gB1W_YKTRuexhc4v0a-4">
          <mxGeometry relative="1" as="geometry">
            <mxPoint x="330" y="210" as="sourcePoint" />
            <mxPoint x="490" y="210" as="targetPoint" />
          </mxGeometry>
        </mxCell>
        <mxCell id="p_gB1W_YKTRuexhc4v0a-19" value="" style="endArrow=none;html=1;rounded=0;exitX=1;exitY=0.5;exitDx=0;exitDy=0;entryX=0;entryY=0.5;entryDx=0;entryDy=0;" edge="1" parent="1" source="p_gB1W_YKTRuexhc4v0a-4" target="p_gB1W_YKTRuexhc4v0a-2">
          <mxGeometry relative="1" as="geometry">
            <mxPoint x="330" y="10" as="sourcePoint" />
            <mxPoint x="490" y="10" as="targetPoint" />
          </mxGeometry>
        </mxCell>
        <mxCell id="p_gB1W_YKTRuexhc4v0a-20" value="" style="endArrow=none;html=1;rounded=0;entryX=0.5;entryY=1;entryDx=0;entryDy=0;exitX=0.5;exitY=0;exitDx=0;exitDy=0;" edge="1" parent="1" source="p_gB1W_YKTRuexhc4v0a-5" target="p_gB1W_YKTRuexhc4v0a-2">
          <mxGeometry relative="1" as="geometry">
            <mxPoint x="330" y="210" as="sourcePoint" />
            <mxPoint x="490" y="210" as="targetPoint" />
          </mxGeometry>
        </mxCell>
        <mxCell id="p_gB1W_YKTRuexhc4v0a-21" value="" style="endArrow=none;html=1;rounded=0;entryX=0.5;entryY=1;entryDx=0;entryDy=0;exitX=0.5;exitY=0;exitDx=0;exitDy=0;" edge="1" parent="1" source="p_gB1W_YKTRuexhc4v0a-3" target="p_gB1W_YKTRuexhc4v0a-5">
          <mxGeometry relative="1" as="geometry">
            <mxPoint x="330" y="210" as="sourcePoint" />
            <mxPoint x="490" y="210" as="targetPoint" />
          </mxGeometry>
        </mxCell>
        <mxCell id="p_gB1W_YKTRuexhc4v0a-24" style="edgeStyle=orthogonalEdgeStyle;rounded=0;orthogonalLoop=1;jettySize=auto;html=1;exitX=0.5;exitY=0;exitDx=0;exitDy=0;entryX=0.5;entryY=1;entryDx=0;entryDy=0;" edge="1" parent="1" source="p_gB1W_YKTRuexhc4v0a-22" target="p_gB1W_YKTRuexhc4v0a-1">
          <mxGeometry relative="1" as="geometry" />
        </mxCell>
        <mxCell id="p_gB1W_YKTRuexhc4v0a-22" value="Nombre" style="ellipse;whiteSpace=wrap;html=1;align=center;" vertex="1" parent="1">
          <mxGeometry x="115" y="150" width="100" height="40" as="geometry" />
        </mxCell>
        <mxCell id="p_gB1W_YKTRuexhc4v0a-25" style="edgeStyle=orthogonalEdgeStyle;rounded=0;orthogonalLoop=1;jettySize=auto;html=1;exitX=1;exitY=0.5;exitDx=0;exitDy=0;entryX=0.25;entryY=1;entryDx=0;entryDy=0;" edge="1" parent="1" source="p_gB1W_YKTRuexhc4v0a-23" target="p_gB1W_YKTRuexhc4v0a-1">
          <mxGeometry relative="1" as="geometry" />
        </mxCell>
        <mxCell id="p_gB1W_YKTRuexhc4v0a-23" value="ID_Depto" style="ellipse;whiteSpace=wrap;html=1;align=center;fontStyle=4;" vertex="1" parent="1">
          <mxGeometry x="10" y="110" width="100" height="40" as="geometry" />
        </mxCell>
        <mxCell id="p_gB1W_YKTRuexhc4v0a-26" value="1:n" style="text;strokeColor=none;fillColor=none;spacingLeft=4;spacingRight=4;overflow=hidden;rotatable=0;points=[[0,0.5],[1,0.5]];portConstraint=eastwest;fontSize=12;whiteSpace=wrap;html=1;align=center;" vertex="1" parent="1">
          <mxGeometry x="333.5" y="20" width="40" height="30" as="geometry" />
        </mxCell>
        <mxCell id="p_gB1W_YKTRuexhc4v0a-27" value="n:m" style="text;strokeColor=none;fillColor=none;spacingLeft=4;spacingRight=4;overflow=hidden;rotatable=0;points=[[0,0.5],[1,0.5]];portConstraint=eastwest;fontSize=12;whiteSpace=wrap;html=1;align=center;" vertex="1" parent="1">
          <mxGeometry x="590" y="185" width="40" height="30" as="geometry" />
        </mxCell>
        <mxCell id="p_gB1W_YKTRuexhc4v0a-32" style="edgeStyle=orthogonalEdgeStyle;rounded=0;orthogonalLoop=1;jettySize=auto;html=1;exitX=0.5;exitY=1;exitDx=0;exitDy=0;entryX=0.5;entryY=0;entryDx=0;entryDy=0;" edge="1" parent="1" source="p_gB1W_YKTRuexhc4v0a-28" target="p_gB1W_YKTRuexhc4v0a-2">
          <mxGeometry relative="1" as="geometry" />
        </mxCell>
        <mxCell id="p_gB1W_YKTRuexhc4v0a-28" value="ID_Curso" style="ellipse;whiteSpace=wrap;html=1;align=center;fontStyle=4;" vertex="1" parent="1">
          <mxGeometry x="480" width="100" height="40" as="geometry" />
        </mxCell>
        <mxCell id="p_gB1W_YKTRuexhc4v0a-33" style="edgeStyle=orthogonalEdgeStyle;rounded=0;orthogonalLoop=1;jettySize=auto;html=1;exitX=0;exitY=1;exitDx=0;exitDy=0;entryX=1;entryY=0.5;entryDx=0;entryDy=0;" edge="1" parent="1" source="p_gB1W_YKTRuexhc4v0a-29" target="p_gB1W_YKTRuexhc4v0a-2">
          <mxGeometry relative="1" as="geometry" />
        </mxCell>
        <mxCell id="p_gB1W_YKTRuexhc4v0a-29" value="Codigo" style="ellipse;whiteSpace=wrap;html=1;align=center;" vertex="1" parent="1">
          <mxGeometry x="640" y="15" width="100" height="40" as="geometry" />
        </mxCell>
        <mxCell id="p_gB1W_YKTRuexhc4v0a-53" style="edgeStyle=orthogonalEdgeStyle;rounded=0;orthogonalLoop=1;jettySize=auto;html=1;exitX=0;exitY=0.5;exitDx=0;exitDy=0;entryX=0.75;entryY=1;entryDx=0;entryDy=0;" edge="1" parent="1" source="p_gB1W_YKTRuexhc4v0a-30" target="p_gB1W_YKTRuexhc4v0a-2">
          <mxGeometry relative="1" as="geometry" />
        </mxCell>
        <mxCell id="p_gB1W_YKTRuexhc4v0a-30" value="Nro_Creditos" style="ellipse;whiteSpace=wrap;html=1;align=center;" vertex="1" parent="1">
          <mxGeometry x="640" y="105" width="100" height="40" as="geometry" />
        </mxCell>
        <mxCell id="p_gB1W_YKTRuexhc4v0a-35" style="edgeStyle=orthogonalEdgeStyle;rounded=0;orthogonalLoop=1;jettySize=auto;html=1;exitX=0;exitY=0.5;exitDx=0;exitDy=0;entryX=0.75;entryY=1;entryDx=0;entryDy=0;" edge="1" parent="1" source="p_gB1W_YKTRuexhc4v0a-31" target="p_gB1W_YKTRuexhc4v0a-2">
          <mxGeometry relative="1" as="geometry" />
        </mxCell>
        <mxCell id="p_gB1W_YKTRuexhc4v0a-31" value="ID_DEPTO" style="ellipse;whiteSpace=wrap;html=1;align=center;" vertex="1" parent="1">
          <mxGeometry x="580" y="145" width="100" height="40" as="geometry" />
        </mxCell>
        <mxCell id="p_gB1W_YKTRuexhc4v0a-37" style="edgeStyle=orthogonalEdgeStyle;rounded=0;orthogonalLoop=1;jettySize=auto;html=1;exitX=1;exitY=0.5;exitDx=0;exitDy=0;entryX=0;entryY=0.5;entryDx=0;entryDy=0;" edge="1" parent="1" source="p_gB1W_YKTRuexhc4v0a-36" target="p_gB1W_YKTRuexhc4v0a-5">
          <mxGeometry relative="1" as="geometry" />
        </mxCell>
        <mxCell id="p_gB1W_YKTRuexhc4v0a-36" value="ID_Curso" style="ellipse;whiteSpace=wrap;html=1;align=center;fontStyle=0;" vertex="1" parent="1">
          <mxGeometry x="303.5" y="150" width="100" height="40" as="geometry" />
        </mxCell>
        <mxCell id="p_gB1W_YKTRuexhc4v0a-39" style="edgeStyle=orthogonalEdgeStyle;rounded=0;orthogonalLoop=1;jettySize=auto;html=1;exitX=1;exitY=0.5;exitDx=0;exitDy=0;entryX=0;entryY=0.5;entryDx=0;entryDy=0;" edge="1" parent="1" source="p_gB1W_YKTRuexhc4v0a-38" target="p_gB1W_YKTRuexhc4v0a-5">
          <mxGeometry relative="1" as="geometry" />
        </mxCell>
        <mxCell id="p_gB1W_YKTRuexhc4v0a-38" value="ID_Estudiante" style="ellipse;whiteSpace=wrap;html=1;align=center;" vertex="1" parent="1">
          <mxGeometry x="303.5" y="210" width="100" height="40" as="geometry" />
        </mxCell>
        <mxCell id="p_gB1W_YKTRuexhc4v0a-47" style="edgeStyle=orthogonalEdgeStyle;rounded=0;orthogonalLoop=1;jettySize=auto;html=1;exitX=0;exitY=0.5;exitDx=0;exitDy=0;entryX=0.75;entryY=0;entryDx=0;entryDy=0;" edge="1" parent="1" source="p_gB1W_YKTRuexhc4v0a-40" target="p_gB1W_YKTRuexhc4v0a-3">
          <mxGeometry relative="1" as="geometry" />
        </mxCell>
        <mxCell id="p_gB1W_YKTRuexhc4v0a-40" value="ID_Estudiante" style="ellipse;whiteSpace=wrap;html=1;align=center;fontStyle=4;" vertex="1" parent="1">
          <mxGeometry x="610" y="250" width="100" height="40" as="geometry" />
        </mxCell>
        <mxCell id="p_gB1W_YKTRuexhc4v0a-48" style="edgeStyle=orthogonalEdgeStyle;rounded=0;orthogonalLoop=1;jettySize=auto;html=1;exitX=1;exitY=0.5;exitDx=0;exitDy=0;entryX=0.5;entryY=1;entryDx=0;entryDy=0;" edge="1" parent="1" source="p_gB1W_YKTRuexhc4v0a-41" target="p_gB1W_YKTRuexhc4v0a-3">
          <mxGeometry relative="1" as="geometry" />
        </mxCell>
        <mxCell id="p_gB1W_YKTRuexhc4v0a-41" value="Nombre" style="ellipse;whiteSpace=wrap;html=1;align=center;" vertex="1" parent="1">
          <mxGeometry x="400" y="350" width="100" height="40" as="geometry" />
        </mxCell>
        <mxCell id="p_gB1W_YKTRuexhc4v0a-45" style="edgeStyle=orthogonalEdgeStyle;rounded=0;orthogonalLoop=1;jettySize=auto;html=1;exitX=0;exitY=0.5;exitDx=0;exitDy=0;entryX=1;entryY=0.5;entryDx=0;entryDy=0;" edge="1" parent="1" source="p_gB1W_YKTRuexhc4v0a-42" target="p_gB1W_YKTRuexhc4v0a-3">
          <mxGeometry relative="1" as="geometry" />
        </mxCell>
        <mxCell id="p_gB1W_YKTRuexhc4v0a-42" value="Apellido" style="ellipse;whiteSpace=wrap;html=1;align=center;" vertex="1" parent="1">
          <mxGeometry x="610" y="300" width="100" height="40" as="geometry" />
        </mxCell>
        <mxCell id="p_gB1W_YKTRuexhc4v0a-44" style="edgeStyle=orthogonalEdgeStyle;rounded=0;orthogonalLoop=1;jettySize=auto;html=1;exitX=0;exitY=0.5;exitDx=0;exitDy=0;entryX=0.75;entryY=1;entryDx=0;entryDy=0;" edge="1" parent="1" source="p_gB1W_YKTRuexhc4v0a-43" target="p_gB1W_YKTRuexhc4v0a-3">
          <mxGeometry relative="1" as="geometry" />
        </mxCell>
        <mxCell id="p_gB1W_YKTRuexhc4v0a-43" value="DNI" style="ellipse;whiteSpace=wrap;html=1;align=center;" vertex="1" parent="1">
          <mxGeometry x="610" y="350" width="100" height="40" as="geometry" />
        </mxCell>
        <mxCell id="p_gB1W_YKTRuexhc4v0a-52" style="edgeStyle=orthogonalEdgeStyle;rounded=0;orthogonalLoop=1;jettySize=auto;html=1;exitX=0;exitY=0.5;exitDx=0;exitDy=0;entryX=1;entryY=0.5;entryDx=0;entryDy=0;" edge="1" parent="1" source="p_gB1W_YKTRuexhc4v0a-51" target="p_gB1W_YKTRuexhc4v0a-2">
          <mxGeometry relative="1" as="geometry" />
        </mxCell>
        <mxCell id="p_gB1W_YKTRuexhc4v0a-51" value="Nombre" style="ellipse;whiteSpace=wrap;html=1;align=center;" vertex="1" parent="1">
          <mxGeometry x="640" y="60" width="100" height="40" as="geometry" />
        </mxCell>
      </root>
    </mxGraphModel>
  </diagram>
</mxfile>
